<?xml version="1.0" standalone="no"?><!DOCTYPE svg PUBLIC "-//W3C//DTD SVG 1.1//EN" "http://www.w3.org/Graphics/SVG/1.1/DTD/svg11.dtd"><svg t="1722063984443" class="icon" viewBox="0 0 1024 1024" version="1.1" xmlns="http://www.w3.org/2000/svg" p-id="4258" xmlns:xlink="http://www.w3.org/1999/xlink" width="200" height="200"><path d="M810.667 170.667h-85.334V128A42.667 42.667 0 0 0 640 128v42.667H384V128a42.667 42.667 0 0 0-85.333 0v42.667h-85.334a128 128 0 0 0-128 128v512a128 128 0 0 0 128 128h597.334a128 128 0 0 0 128-128v-512a128 128 0 0 0-128-128z m42.666 640a42.667 42.667 0 0 1-42.666 42.666H213.333a42.667 42.667 0 0 1-42.666-42.666V512h682.666z m0-384H170.667v-128A42.667 42.667 0 0 1 213.333 256h85.334v42.667a42.667 42.667 0 0 0 85.333 0V256h256v42.667a42.667 42.667 0 0 0 85.333 0V256h85.334a42.667 42.667 0 0 1 42.666 42.667z" p-id="4259" fill="#2c2c2c"></path></svg>