<?xml version="1.0" standalone="no"?><!DOCTYPE svg PUBLIC "-//W3C//DTD SVG 1.1//EN" "http://www.w3.org/Graphics/SVG/1.1/DTD/svg11.dtd"><svg t="1722253270587" class="icon" viewBox="0 0 1024 1024" version="1.1" xmlns="http://www.w3.org/2000/svg" p-id="36498" xmlns:xlink="http://www.w3.org/1999/xlink" width="200" height="200"><path d="M915.382444 375.247426a554.905528 554.905528 0 0 0-22.329301-114.653604l13.308007 4.414675a430.142957 430.142957 0 0 0-153.553933-199.172248c-8.70139-5.118464-35.125462 4.926522-26.616016-12.156353S688.698449 45.490353 669.440227 48.945316C643.208096 53.16805 639.433229 19.770069 594.198799 12.796161c-25.592322-3.582925-31.990403 18.426472-44.786564 13.308008-23.225032-9.085274-20.473858-27.319804-57.582725-9.085275-18.426472 9.021294 11.580526-26.104169-49.137259-4.606618L437.82971 0c-108.76737 41.587524-139.030291 76.20114-169.549135 79.272218-6.973908 0-34.101769 32.758173-53.551935 53.040088-17.082875 17.082875-26.296111 36.53304-49.137259 39.604119l-17.018894 70.378886a136.215135 136.215135 0 0 0-49.009297 97.250825 66.540038 66.540038 0 0 1 4.478656-52.848145c-17.082875 6.845946-45.874238 17.082875-29.687094 96.86694 12.796161 63.149055-5.310407 135.127462 10.044987 204.738578 4.79856 20.985704 0 40.115965 6.39808 51.184645 107.615715 235.705288 208.769369 391.946416 472.306308 383.884834l4.414676-8.893332c-28.151555-6.781965-55.087474-17.018894-111.518544-30.646806-18.618414-4.478656-23.03309-34.16575-40.243927-44.210737-9.405178-5.438368-28.343497-4.094772-37.172848-9.917025s4.222733-21.625512-19.962012-14.3317c-8.573428 2.559232-13.819854-10.876737-20.153954-17.018894s0-23.736879-23.352994-24.760572-18.426472-29.687094-19.770069-44.786564c-12.156353 1.535539-1.215635-1.535539-13.308007 4.414675a63.980806 63.980806 0 0 1-23.928822-31.990402c-10.236929-48.945316-10.556833-21.497551-14.971508-32.374288a325.53434 325.53434 0 0 0-19.194242-42.163351l26.743977 8.893332H255.100529l4.478656-13.308008-26.616015-8.701389h31.222633c-7.677697 14.011796 2.047386 5.310407-13.49995 8.893332v13.308007l22.329301-8.893332v-13.308007c-20.601819-10.236929-28.663401-13.308008-49.073278-22.009398l9.021294 8.893332v4.414676h-49.457163c-22.009397-14.843547-14.011796-31.990403-17.914626-53.040088 17.082875 0 9.213236 6.398081 17.082875-12.796161l-17.082875 8.829351 13.308008-33.909827L165.5274 627.011896c-29.175247-38.708387-16.187144-97.69869-11.900429-151.954413a180.169949 180.169949 0 0 1 37.684694-102.369289c8.829351-10.044987 5.118464-25.208437 5.438369-37.172849l31.222633-26.424072h17.914626c7.677697 17.018894 4.73458 5.438368 0 22.009397l8.829351 4.414675c7.16585-8.70139 6.398081-5.950215 8.893332-22.009397-10.044987-10.556833-6.973908-9.853044-26.616016-13.308007A119.324203 119.324203 0 0 1 348.640467 243.127062l4.414675-13.308008-17.914625 9.021294-4.414676-13.116065A109.215235 109.215235 0 0 1 406.799019 198.340498c6.398081 0 6.973908-17.082875 12.796161-19.194242a281.195641 281.195641 0 0 1 371.088674 147.155853 326.302109 326.302109 0 0 1 8.189543 34.10177c17.082875 57.006898-7.16585 121.563531 9.725082 155.601319-7.869639 35.957213-36.661002 13.819854-40.243927 30.838749a106.528042 106.528042 0 0 1-40.755773 78.824353 202.371289 202.371289 0 0 1-30.710787 22.329301 84.326702 84.326702 0 0 0 22.329301-39.732081c-106.272118 111.518544-262.321304 63.980806-289.961011-105.952214A101.153654 101.153654 0 0 1 464.253783 409.477157a142.549235 142.549235 0 0 1 205.69829-20.473858l-8.829351-30.710787c-32.950115-24.376687-17.082875-19.770069-9.085275-57.582725v-4.286714l-17.914625-12.796161c2.559232 10.044987 1.023693 5.246426 9.085274 17.018894-4.478656 16.059182 0 9.085274-8.893332 17.082875-15.035489 9.725082-23.672898 7.293812-44.786564 4.414676l4.670599-13.627912-13.435969-13.308007c0 11.772468-4.094772 2.751175 0 17.082875-126.042187 9.853044-217.982605 79.976007-178.506448 260.081975a220.989703 220.989703 0 0 0 8.829351 44.210737l-8.829351 8.70139-4.478657-26.424073h-13.435969l-4.414675 13.308007c-12.796161-25.592322-0.895731 10.684795 40.243926 52.848146a132.184345 132.184345 0 0 0 12.796162 12.796161 205.954214 205.954214 0 0 0 201.219634 49.137259h9.085274v-4.606618l-102.369289-13.308008-4.286714-8.701389a278.380486 278.380486 0 0 0 236.728981-48.43347c13.180046-17.082875 11.452564-24.056783 22.20134-9.085275 19.194242-17.018894 3.902829-26.743977 13.49995-43.954813 6.398081-11.772468 32.56623-17.082875 44.786564-35.317405l40.115965-136.471059h-17.594722c3.071079-14.3317 22.521244-34.101769-4.414675-48.43347-2.559232-1.535539 9.021294-1.343597 8.829351-4.286714a145.556333 145.556333 0 0 0-22.137359-66.348095c33.078077 21.689493 36.341098 68.26752 53.551935 105.760272v8.893332h4.414675v-47.409777zM433.415034 595.021494l-9.597121-26.488054 62.445267 57.582725z m-307.107867-383.884835l-23.161052-3.902829v39.73208c16.762971-10.556833 19.194242-10.428871 22.393282-35.317405z m574.867539 176.906928a57.19884 57.19884 0 0 0-17.018894 44.146756l13.435969 8.701389a37.812656 37.812656 0 0 0 4.414676-52.848145z m147.155854 167.629711a78.376487 78.376487 0 0 0 35.829251-97.058882l-35.829251 96.86694zM674.430729 476.209137c-15.739278 11.772468-19.83405 13.308008-22.393282 39.732081l13.308008 8.893332 17.914626-8.893332a59.886034 59.886034 0 0 0 4.414675-48.43347c-8.317505 13.435969-2.495251 20.601819-13.244027 8.701389M607.378845 555.673298c15.86724-10.940718 11.90043-14.843547 17.914626-22.137359v-4.79856a291.048685 291.048685 0 0 1-62.445267 0c-12.796161-14.011796-13.308008-29.36719-31.222633-39.604119 17.082875 35.189443 3.263021 38.388483 31.222633 61.741478a159.952014 159.952014 0 0 0 40.115965 4.478656c1.535539 0-6.845946-1.023693 4.414676 0zM187.920682 520.355893h-13.435969l-8.957313 8.70139c9.53314 10.236929 5.438368 7.16585 13.308008-4.414676l13.49995 22.137359 4.414676-17.018894-8.829352-8.70139z m17.082876 57.582725l4.414675-8.893332c-10.044987-8.70139 0-3.582925-13.308007 0l-13.308008-17.274817 4.478656 17.018894v8.893332h17.722684z" fill="#CE0C48" p-id="36499"></path></svg>