<?xml version="1.0" standalone="no"?><!DOCTYPE svg PUBLIC "-//W3C//DTD SVG 1.1//EN" "http://www.w3.org/Graphics/SVG/1.1/DTD/svg11.dtd"><svg t="1723463920841" class="icon" viewBox="0 0 1024 1024" version="1.1" xmlns="http://www.w3.org/2000/svg" p-id="4325" xmlns:xlink="http://www.w3.org/1999/xlink" width="200" height="200"><path d="M154 283.788C229.456 165.47 361.86 87 512.594 87c164.43 0 307.05 93.379 377.724 230H512.594c-87.46 0-161.47 57.577-186.196 136.894L154 283.788z" fill="#DD5044" p-id="4326"></path><path d="M494.83 936.635l0.476-0.989-0.569 0.986-0.54-0.023 61.103-234.3C642.455 682.836 707.594 605.025 707.594 512c0-107.56-87.085-194.78-194.594-195h377.318c30.212 58.403 47.276 124.709 47.276 195 0 234.721-190.28 425-425 425-5.95 0-11.873-0.122-17.764-0.365z" fill="#FFCD41" p-id="4327"></path><path d="M491.977 936.509C266.83 925.755 87.594 739.809 87.594 512c0-70.105 16.974-136.246 47.037-194.537l17.04-29.981c0.77-1.236 1.546-2.467 2.329-3.694l172.398 170.106c-5.722 18.353-8.804 37.87-8.804 58.106 0 107.696 87.304 195 195 195 14.67 0 28.962-1.62 42.707-4.69l-58.797 225.454L494 935l-2.023 1.509z" fill="#17A05D" p-id="4328"></path><path d="M494.747 936.615l-0.545-0.023 61.074-234.187c53.77-11.885 99.2-45.966 126.192-92.14l1.273 0.735-187.994 325.615zM154.373 283.84l0.033-0.052 172.398 170.106C321.083 472.247 318 491.764 318 512c0 35.834 9.666 69.41 26.532 98.265l-1.273 0.735-188.886-327.16zM890.723 317l0.035 0.067-233.125 64.14C621.951 341.774 570.37 317 513 317h377.724z" opacity=".047" p-id="4329"></path><path d="M317.594 512a195 195 0 1 0 390 0 195 195 0 1 0-390 0z" fill="#FFFFFF" p-id="4330"></path><path d="M357.594 512a155 155 0 1 0 310 0 155 155 0 1 0-310 0z" fill="#4A8AF4" p-id="4331"></path></svg>