<?xml version="1.0" standalone="no"?><!DOCTYPE svg PUBLIC "-//W3C//DTD SVG 1.1//EN" "http://www.w3.org/Graphics/SVG/1.1/DTD/svg11.dtd"><svg t="1722248163679" class="icon" viewBox="0 0 1024 1024" version="1.1" xmlns="http://www.w3.org/2000/svg" p-id="9705" xmlns:xlink="http://www.w3.org/1999/xlink" width="200" height="200"><path d="M164.693333 886.613333L85.504 42.922667l852.949333 0.341333-78.506666 842.709333-348.586667 95.317334L164.693333 886.613333z m631.04-46.08l66.218667-722.56h-349.312l2.688 797.013334L795.733333 840.533333zM480.042667 223.957333H395.221333L394.24 656.384l-164.693333-43.52 0.341333 98.901333 250.154667 65.365334V223.914667z" fill="#D4B830" p-id="9706"></path><path d="M512.64 117.632h349.312L795.733333 840.234667l-283.093333 74.410666V117.632z m265.130667 601.514667l22.954666-270.165334-169.642666 18.346667v-144.213333l180.949333-0.682667 7.338667-98.56-273.109334 1.322667 3.669334 358.741333 164.992-27.392-2.346667 79.872-166.314667 42.837333 1.664 97.877334 229.845334-57.984z" fill="#FDD83C" p-id="9707"></path></svg>