<?xml version="1.0" standalone="no"?><!DOCTYPE svg PUBLIC "-//W3C//DTD SVG 1.1//EN" "http://www.w3.org/Graphics/SVG/1.1/DTD/svg11.dtd"><svg t="1722249489668" class="icon" viewBox="0 0 1024 1024" version="1.1" xmlns="http://www.w3.org/2000/svg" p-id="27226" xmlns:xlink="http://www.w3.org/1999/xlink" width="200" height="200"><path d="M954.323946 260.279454a11.441843 11.441843 0 0 0-5.312285-8.99002L514.630264 1.203437a11.441843 11.441843 0 0 0-10.215931 0L71.667484 254.149895a11.441843 11.441843 0 0 0-4.903647 8.990019v500.580632a11.441843 11.441843 0 0 0 5.312285 8.99002L507.683431 1022.796563a11.441843 11.441843 0 0 0 10.215931 0l432.746848-251.720546a11.441843 11.441843 0 0 0 4.903647-8.99002z m-127.494823 408.63725a53.53148 53.53148 0 0 1 0 11.441843l-7.764107 13.48503a53.53148 53.53148 0 0 1-8.99002 7.35547l-270.51786 163.4549-12.667755 5.312285a24.926872 24.926872 0 0 1-8.990019 0 21.657774 21.657774 0 0 1-6.538196 0l-11.033206-4.49501-116.461616-56.391941a6.129559 6.129559 0 0 1-2.860461-7.764108l18.797314-40.863725a6.129559 6.129559 0 0 1 7.764107-2.86046l102.976587 49.853744a12.259118 12.259118 0 0 0 10.215932 0l245.18235-148.335322a11.85048 11.85048 0 0 0 6.129559-6.946833V371.837423a11.441843 11.441843 0 0 0-4.903647-8.990019l-242.730527-143.431675a11.033206 11.033206 0 0 0-10.215931 0L265.361541 363.256041a11.441843 11.441843 0 0 0-5.312284 8.990019v286.046076a15.119578 15.119578 0 0 0 4.49501 9.807294 185.112675 185.112675 0 0 0 73.554705 43.724186 74.37198 74.37198 0 0 0 40.863725-20.023226 15.936853 15.936853 0 0 0 4.086372-10.215931V368.976962a6.129559 6.129559 0 0 1 5.720922-5.720921h43.315548a6.129559 6.129559 0 0 1 5.720922 5.720921v320.780242a95.621117 95.621117 0 0 1 0 11.85048 26.152784 26.152784 0 0 1-3.677735 9.807294 129.129371 129.129371 0 0 1-93.986568 53.940117 163.4549 163.4549 0 0 1-129.129371-76.006528 28.604608 28.604608 0 0 1-4.903647-11.441843 83.770636 83.770636 0 0 1 0-11.850481V355.90057a52.305568 52.305568 0 0 1 0-11.441843l8.172745-13.893666a52.305568 52.305568 0 0 1 9.398656-7.355471L499.510686 164.658337a51.488294 51.488294 0 0 1 11.033205-4.49501h16.34549a51.896931 51.896931 0 0 1 10.624569 4.49501l270.51786 159.777165a53.122843 53.122843 0 0 1 9.398657 7.35547l7.764107 12.667755a53.122843 53.122843 0 0 1 0 11.441843v311.790222zM653.158292 573.295588a222.707302 222.707302 0 0 0-52.305568-17.571402 478.51422 478.51422 0 0 1-78.458352-24.518235 74.780617 74.780617 0 0 1-44.541461-69.468333 78.049715 78.049715 0 0 1 8.172745-39.229176 81.72745 81.72745 0 0 1 25.33551-28.604607 105.837048 105.837048 0 0 1 32.69098-15.119579 155.282155 155.282155 0 0 1 44.54146-6.129558 175.305381 175.305381 0 0 1 62.5215 10.215931 84.996548 84.996548 0 0 1 39.229176 26.970058 167.94991 167.94991 0 0 1 16.34549 40.863725 5.312284 5.312284 0 0 1-4.49501 6.538196l-38.411902 5.312285a7.355471 7.355471 0 0 1-7.764107-4.903647 79.275627 79.275627 0 0 0-17.980039-31.056431 72.737431 72.737431 0 0 0-46.17601-13.076392 83.770636 83.770636 0 0 0-50.671019 11.85048 33.916892 33.916892 0 0 0-15.119578 27.378696 28.19597 28.19597 0 0 0 6.129559 17.980039 45.358735 45.358735 0 0 0 19.614588 13.893666q7.764108 2.860461 45.358735 13.076392a632.161827 632.161827 0 0 1 76.006528 23.700961 77.23244 77.23244 0 0 1 33.916892 26.970058 75.189254 75.189254 0 0 1 12.259118 44.132823 86.22246 86.22246 0 0 1-15.119579 48.219196 96.847028 96.847028 0 0 1-43.315548 35.142804 157.325341 157.325341 0 0 1-63.747411 12.259117 142.205763 142.205763 0 0 1-89.900196-24.518235 188.381773 188.381773 0 0 1-37.594627-67.016509 4.903647 4.903647 0 0 1 4.086373-6.538196l40.863725-6.129559a6.946833 6.946833 0 0 1 7.35547 4.903647 108.697509 108.697509 0 0 0 22.066412 40.863725 81.72745 81.72745 0 0 0 54.757392 16.34549 81.72745 81.72745 0 0 0 50.671019-13.485029 42.906911 42.906911 0 0 0 17.162764-33.916892 31.056431 31.056431 0 0 0-13.485029-25.335509z m0 0" fill="#24b82e" p-id="27227"></path></svg>