<?xml version="1.0" standalone="no"?><!DOCTYPE svg PUBLIC "-//W3C//DTD SVG 1.1//EN" "http://www.w3.org/Graphics/SVG/1.1/DTD/svg11.dtd"><svg t="1723540477278" class="icon" viewBox="0 0 1024 1024" version="1.1" xmlns="http://www.w3.org/2000/svg" p-id="5804" xmlns:xlink="http://www.w3.org/1999/xlink" width="200" height="200"><path d="M949.149245 274.877441c0 2.046612 0 4.093225 0 6.139837-0.354064 0.565888-0.926092 1.095961-1.028423 1.703805-1.808182 10.764158-8.182356 17.948791-17.453511 23.199375-16.307408 9.235338-32.473599 18.718317-48.684816 28.123524-1.50733 0.874927-2.90619 1.937119-5.124717 3.430122 2.134617 0.76748 3.177366 1.219781 4.263094 1.51961 10.482749 2.901073 21.083178 5.432733 31.434943 8.740058 15.700587 5.01727 24.122397 21.137413 19.8767 37.061081-4.136204 15.513322-19.568684 25.448602-35.386952 21.768793-17.703197-4.118807-35.189454-9.178033-52.763714-13.849426-13.0799-3.476171-26.149567-6.987135-39.22435-10.482749 0.850367 2.095731 2.200108 3.212158 3.65218 4.174066 21.877263 14.502295 43.738154 29.031197 65.671699 43.448558 9.007141 5.92085 14.424524 14.068414 14.976086 24.810059 0.617054 12.013615-4.354168 21.667485-14.691607 27.922956-10.499122 6.353708-21.449521 6.337335-31.905664-0.156566-10.277064-6.382361-20.24509-13.262048-30.335912-19.943215-22.453385-14.865569-44.893466-29.751604-67.355037-44.604894-1.997494-1.321088-4.109598-3.529383-6.563486 0.309038 5.614881 5.889127 11.308557 11.717879 16.839527 17.698081 7.205099 7.789407 9.896394 17.059538 7.652284 27.38879-2.608407 12.006452-10.004865 20.034289-21.939685 23.203468-11.444657 3.039219-21.599947 0.179079-29.952172-8.293897-8.260128-8.379854-16.470113-16.813944-24.485671-25.427112-2.509147-2.695389-4.40124-3.194762-7.730055-1.213641-14.932084 8.888438-30.04427 17.472953-45.071522 26.200732-1.321088 0.76748-2.50403 1.772366-3.750417 2.667759 0.156566 0.455371 0.314155 0.909719 0.470721 1.36509 1.793856 0 3.588735-0.001023 5.382591 0 11.255345 0.008186 22.512736-0.106424 33.766035 0.056282 16.402575 0.236384 29.455869 13.824867 29.457916 30.440289 0.002047 16.623609-13.034874 30.210046-29.443589 30.450523-11.42419 0.167822-22.851451 0.034792-34.277688 0.076748-1.709945 0.00614-3.419889 0.240477-5.129834 0.369414 1.173732 2.15406 2.527566 3.094478 3.948939 3.918239 14.595416 8.453533 29.302373 16.72287 43.741223 25.435299 4.055362 2.447748 6.293333 1.914606 9.366322-1.459235 7.919367-8.696056 16.104793-17.166985 24.484647-25.423019 10.149151-9.998725 25.143657-11.568477 37.204343-4.316306 11.799744 7.095605 18.028609 21.831214 13.176091 34.944883-2.378164 6.427386-7.471159 11.968589-11.858072 17.496489-3.63376 4.579295-8.03193 8.550747-12.092409 12.791327 0.384763 0.655939 0.769526 1.310855 1.155313 1.966795 2.0241-0.707105 4.299933-1.033539 6.036483-2.177596 31.595602-20.817118 63.162552-41.680285 94.65173-62.659085 9.438976-6.288217 19.374256-8.322549 30.014594-4.03592 11.242042 4.52813 17.814738 13.260002 19.119453 25.139563 1.354857 12.344143-3.63683 22.353101-14.034645 29.29214-22.116717 14.758122-44.326555 29.376051-66.48625 44.068681-1.456165 0.966001-2.812045 2.083451-4.213975 3.130294 2.249227 0.502443 4.025687 0.143263 5.773494-0.325411 27.750017-7.43125 55.481615-14.930037 83.259262-22.255887 3.735068-0.985444 7.755638-1.828648 11.541871-1.512447 15.168468 1.263783 27.15957 13.170974 28.358885 27.569916 1.293459 15.522532-7.989975 28.730345-23.261797 32.95046-9.010211 2.489704-18.063401 4.826935-27.086915 7.268544-1.824555 0.493234-3.605108 1.150196-6.599302 2.117221 2.813069 1.746784 4.347005 2.755764 5.932106 3.674693 16.507976 9.570983 33.008788 19.154245 49.54337 28.67918 8.593725 4.950755 14.236236 11.985986 16.037255 21.896706 0.141216 0.777713 0.75213 1.470491 1.144056 2.203178 0 2.046612 0 4.093225 0 6.139837-0.331551 0.589424-0.88209 1.151219-0.961908 1.77339-2.717901 21.144576-27.220968 33.714869-48.516993 20.402679-15.738449-9.838066-32.063253-18.738783-48.137347-28.039613-1.564635-0.905626-3.201925-1.687432-5.774517-3.03308 0.579191 2.840698 0.855484 4.624321 1.311879 6.360871 2.333138 8.877181 4.611018 17.770735 7.108908 26.601868 1.812275 6.408967 1.983167 12.68695-0.127913 19.061125-4.364401 13.171997-16.118096 21.333888-30.497595 21.032012-13.232372-0.277316-24.671912-9.763364-28.456099-23.819498-7.556093-28.065196-15.014972-56.155974-22.538319-84.23038-0.404206-1.5104-1.025353-2.962471-1.874697-5.378497-0.575098 1.622964-0.857531 2.079358-0.887206 2.552126-1.725294 27.708062-3.584642 55.407937-5.079692 83.128279-0.88209 16.35141-14.46034 29.642111-30.746258 29.436426-16.84976-0.211824-30.237675-13.474896-30.144554-30.315446 0.053212-9.704013 0.623193-19.413142 1.215688-29.104875 1.839905-30.087249 3.837398-60.165288 5.621021-90.255607 0.096191-1.627057-1.196245-3.335978-1.841951-5.007037-0.61296 0.110517-1.224898 0.222057-1.837858 0.332575-2.230808 7.605212-4.517897 15.193027-6.674003 22.819728-1.925862 6.813173-5.67321 12.348236-11.322883 16.565281-10.237155 7.642051-24.198122 7.980765-34.986839 0.921999-10.689457-6.993275-16.087397-20.188808-12.869099-32.528857 3.130294-12.003382 6.589069-23.923876 10.100032-35.823903 0.970094-3.28686 0.49835-5.196349-2.700505-7.001461-15.578814-8.791224-31.009248-17.844413-46.512337-26.770713-1.075495-0.6191-2.309602-0.960885-4.756327-1.953492 1.511423 2.783393 2.344395 4.394077 3.245927 5.965875 5.338588 9.312086 11.029194 18.444071 15.901155 27.993564 2.412956 4.729721 4.353145 10.150174 4.723581 15.385409 0.969071 13.682627-8.228405 25.999141-21.427008 30.166043-13.163811 4.155646-27.360138-0.807389-34.743292-12.707416-6.194072-9.984399-11.819187-20.321838-17.724687-30.486338-0.794086-1.367137-1.75804-2.636037-3.100618-4.627391-0.346901 1.585101-0.602727 2.209318-0.603751 2.834558-0.025583 18.759249 0.035816 37.519522-0.088004 56.278771-0.021489 3.25923 1.803066 3.885494 4.312212 4.50664 12.208043 3.021823 24.495904 5.79089 36.554544 9.332553 14.859429 4.364401 23.12672 18.780739 20.707624 34.879392-2.128477 14.158465-15.071254 25.203008-30.012547 24.618701-6.523577-0.254803-12.981662-2.336208-19.457144-3.651157-3.872191-0.785899-7.719822-1.692548-11.57871-2.544963-0.339738 0.627287-0.678452 1.255597-1.01819 1.882883 1.701758 1.415232 3.209088 3.217275 5.134951 4.189416 33.913391 17.114796 67.89739 34.086329 101.81999 51.181683 14.510482 7.312546 21.168112 22.044062 16.813944 36.655851-5.560646 18.658965-25.678846 27.378557-43.520189 18.573008-23.51353-11.605316-46.89096-23.485901-70.335928-35.229362-1.726318-0.864694-3.52222-1.588171-5.2864-2.37714 0.64059 2.465145 1.952468 3.936659 3.342118 5.330402 20.464077 20.536732 41.066301 40.938388 61.363579 61.638849 12.248975 12.491499 12.045337 31.234375 0.065492 43.209104-12.17939 12.173251-31.006178 12.170181-43.591821-0.11768-6.832615-6.670933-13.492292-13.519921-20.258393-20.259416-1.248434-1.243317-2.638083-2.344395-5.004991-4.429893 0 3.15997 0 4.970198 0 6.780427-0.001023 19.101033 0.064468 38.202067-0.022513 57.302077-0.069585 15.256472-8.899694 27.432793-22.418592 31.255865-1.937119 0.547469-3.857864 1.155313-5.786797 1.734504-1.705851 0-3.41068 0-5.116531 0-0.431835-0.272199-0.828878-0.663102-1.300622-0.799202-19.886933-5.724375-26.925233-15.059997-26.927279-35.762505-0.002047-18.073634 0.008186-36.148291-0.01535-54.221926-0.002047-1.722224-0.207731-3.444449-0.384763-6.186909-2.264577 2.1295-3.645017 3.362584-4.952802 4.668323-6.876618 6.868431-13.586436 13.909801-20.62883 20.60427-14.996552 14.255679-39.307238 9.999748-48.530296-8.348132-6.191003-12.317537-3.761674-25.937742 6.731308-36.507472 20.181645-20.329001 40.448224-40.573067 60.660568-60.872393 1.290389-1.295506 2.413979-2.75781 3.615341-4.142343-2.64934-0.020466-4.464685 0.821715-6.252401 1.718131-23.287379 11.669784-46.531779 23.427572-69.870324 34.994002-14.580067 7.225565-31.058366 2.90926-39.752376-10.115382-10.451026-15.658631-4.708232-36.164664 12.83226-45.030589 28.729322-14.520715 57.544601-28.872584 86.322018-43.299155 5.782703-2.899026 11.631922-5.681396 17.283642-8.818853 1.38351-0.76748 2.110057-2.719948 3.139503-4.126994-0.411369-0.393973-0.823761-0.787946-1.235131-1.181919-6.738471 1.692548-13.405311 3.824095-20.236903 4.941546-5.609765 0.917906-11.643178 1.757017-17.092283 0.660032-14.116509-2.842745-23.616884-15.154141-23.893176-29.322839-0.272199-13.994736 9.247618-26.308179 23.698748-30.197766 11.320836-3.047406 22.701025-5.894244 34.126238-8.519024 3.567245-0.819668 4.53734-2.446725 4.505617-5.938246-0.157589-17.73185-0.062422-35.465746-0.093121-53.198619-0.002047-1.230014-0.297782-2.459005-0.607844-4.852518-1.51654 2.413979-2.432399 3.773953-3.251044 5.191232-5.54018 9.586332-10.965749 19.240203-16.609283 28.764114-6.387477 10.779507-16.133446 16.531512-28.491914 15.452947-23.845081-2.080382-35.865859-25.77913-24.175609-46.690392 5.319146-9.514701 10.855232-18.909675 16.277732-28.367071 0.86674-1.511423 1.648546-3.070942 2.470261-4.608971-1.995447-0.138146-3.214205 0.315178-4.324492 0.954745-15.35164 8.841366-30.624485 17.819854-46.076408 26.482141-3.419889 1.916653-3.918239 3.858888-2.862187 7.372921 3.423983 11.389398 6.739495 22.819728 9.736758 34.32783 4.391007 16.863063-4.79419 33.056883-21.079084 37.699624-16.278755 4.640694-32.590256-4.442172-37.693484-21.079084-1.944282-6.337335-3.566222-12.774955-5.582135-19.088754-0.465604-1.458211-1.944282-2.593058-2.957355-3.877307-0.653893 1.732457-1.925862 3.488451-1.859347 5.192256 0.384763 9.865695 1.080611 19.71911 1.680269 29.575596 0.806365 13.258978 1.667989 26.514887 2.418073 39.775912 0.951675 16.830317 2.289136 33.656541 2.580778 50.500161 0.272199 15.755846-13.4575 28.723182-29.6636 29.201066-15.668865 0.462534-30.115901-12.574387-31.028691-28.061103-1.102101-18.699897-2.112104-37.405935-3.247974-56.103786-0.604774-9.955746-1.38965-19.901259-2.093684-29.850865-0.447185-0.076748-0.89437-0.152473-1.341554-0.229221-1.732457 6.258541-3.502777 12.506848-5.189186 18.777669-6.444782 23.957645-12.604062 47.997154-19.380396 71.860654-4.575202 16.112979-20.647249 25.047466-36.31509 21.011546-16.554024-4.264117-26.118867-19.523659-22.581298-36.265972 1.051959-4.980431 2.539846-9.868765 3.812839-14.803147 1.719154-6.665817 3.421936-13.33675 5.462408-21.293979-2.852978 1.506307-4.486174 2.301416-6.054903 3.207042-17.110703 9.884115-34.086329 20.007683-51.347458 29.621645-18.562774 10.339486-40.448224 0.177032-45.001937-20.507056-0.248663-1.12973-0.829901-2.186805-1.25662-3.27765 0-2.046612 0-4.093225 0-6.139837 0.354064-0.565888 0.927115-1.094938 1.029446-1.702782 1.812275-10.762111 8.182356-17.949814 17.453511-23.201421 16.307408-9.235338 32.474622-18.718317 48.684816-28.123524 1.50733-0.873903 2.905166-1.937119 5.088902-3.40761-1.780553-0.687662-2.49789-1.037632-3.255137-1.246387-10.974959-3.041266-22.089088-5.650697-32.900318-9.190313-15.337313-5.021364-23.574928-21.245883-19.389606-36.915771 4.146437-15.525602 19.678178-25.505907 35.399231-21.806655 17.696034 4.163833 35.18536 9.202593 52.760644 13.879102 13.07683 3.480264 26.145473 6.989181 39.21821 10.485819-1.003863-2.198062-2.512217-3.396353-4.111644-4.456498-21.735024-14.409175-43.455721-28.839839-65.239863-43.174312-8.999978-5.921873-14.410198-14.083763-14.947434-24.829502-0.599657-12.011568 4.380774-21.649066 14.71719-27.907607 10.512425-6.364965 21.462824-6.319939 31.898501 0.189312 11.132548 6.944156 21.959128 14.378475 32.903388 21.624507 21.600971 14.300704 43.185568 28.628014 64.794725 42.917462 1.989307 1.314948 4.106528 3.527336 6.529717-0.334621-5.627161-5.900384-11.31572-11.734252-16.8559-17.706267-7.228635-7.791453-9.881045-17.073864-7.643074-27.398 2.555196-11.786441 9.775644-19.811208 21.466917-23.056112 11.583826-3.215228 21.941732-0.462534 30.451546 8.178263 8.257058 8.382924 16.46295 16.822131 24.474414 25.438369 2.508123 2.697435 4.400217 3.194762 7.728008 1.213641 14.931061-8.888438 30.043247-17.473977 45.070498-26.201755 1.320065-0.766456 2.50096-1.774413 3.746324-2.669806-0.149403-0.453325-0.299829-0.907673-0.450255-1.360997-1.803066 0-3.605108 0.001023-5.408173 0-11.085476-0.005117-22.171975 0.094144-33.255405-0.040932-16.817014-0.204661-29.954219-13.648858-29.952172-30.467919 0.001023-16.815991 13.150508-30.262234 29.962405-30.458709 11.254322-0.130983 22.511713-0.01842 33.767058-0.057305 1.708921-0.00614 3.415796-0.240477 5.123694-0.369414-1.071402-2.000564-2.251274-2.908236-3.52836-3.64911-15.030321-8.722662-30.140461-17.310248-45.067428-26.206872-3.328815-1.984191-5.208629-1.506307-7.726985 1.191128-8.378831 8.972349-16.833387 17.890462-25.600051 26.482141-9.900487 9.704013-24.828478 11.121292-36.810371 3.993964-11.489682-6.834662-17.010419-20.832468-13.716396-34.042327 1.916653-7.686053 6.982018-13.098319 12.260232-18.473747 4.114714-4.189416 8.134261-8.471952 12.196787-12.713556-0.37146-0.654916-0.741897-1.308809-1.113357-1.963725-2.028193 0.701988-4.311189 1.019213-6.048763 2.164293-31.594579 20.820188-63.162552 41.681308-94.64252 62.673411-9.448186 6.300496-19.385513 8.295943-30.016641 4.050246-11.260461-4.496407-17.823947-13.249769-19.139919-25.121144-1.366114-12.334933 3.593851-22.347984 14.009062-29.29214 22.122857-14.749936 44.326555-29.378098 66.485227-44.073798 1.463328-0.971118 2.828418-2.090615 4.239558-3.14155-2.238994-0.499373-4.021593-0.167822-5.768377 0.300852-27.748994 7.433296-55.479569 14.937201-83.255169 22.267143-3.734044 0.985444-7.758708 1.853208-11.536754 1.514493-15.325034-1.373277-27.170826-13.127995-28.377304-27.545356-1.299599-15.528672 7.982812-28.738531 23.25361-32.952506 9.012258-2.486634 18.064424-4.826935 27.088962-7.268544 1.825578-0.494257 3.608178-1.150196 6.604418-2.117221-2.811022-1.74576-4.344958-2.75474-5.930059-3.674693-16.507976-9.570983-33.010835-19.151176-49.54337-28.678156-8.590656-4.950755-14.237259-11.985986-16.036231-21.897729-0.141216-0.777713-0.75213-1.470491-1.144056-2.203178 0-2.046612 0-4.093225 0-6.139837 0.332575-0.589424 0.886183-1.150196 0.964978-1.771343 2.699482-21.10262 27.191292-33.732266 48.505737-20.407796 15.591093 9.746992 31.770588 18.553565 47.696302 27.764344 1.713015 0.99056 3.482311 1.882883 6.224772 3.359514-0.584308-2.891863-0.854461-4.677533-1.309832-6.41306-2.331092-8.876158-4.607948-17.768689-7.104815-26.598798-1.811252-6.40692-2.00875-12.691043 0.104377-19.062148 4.371564-13.181207 16.101723-21.322631 30.481222-21.036106 13.253862 0.264013 24.678052 9.677407 28.479635 23.766286 7.570419 28.055986 15.014972 56.145741 22.533202 84.216054 0.407276 1.520633 1.013073 2.988054 1.825578 5.349845 0.601704-1.50119 0.908696-1.933025 0.935302-2.38328 1.073448-17.848507 2.086521-35.701107 3.184529-53.547567 0.689708-11.216459 0.789992-22.530133 2.428306-33.611515 2.292206-15.508205 17.076934-26.837228 31.639604-25.432229 17.323551 1.672082 29.091572 14.104229 28.711925 31.159674-0.330528 14.808264-1.309832 29.605272-2.174526 44.397163-0.775666 13.256932-1.823532 26.497491-2.680039 39.750329-0.747014 11.556197-1.469468 23.115464-1.983167 34.682917-0.060375 1.353834 1.276063 2.769067 1.964748 4.15667 0.948605-1.131777 2.357697-2.118244 2.768043-3.419889 2.091638-6.647397 3.78521-13.419637 5.877871-20.066011 5.100158-16.204054 21.524223-25.122167 37.603433-20.555152 16.392342 4.656043 25.504884 21.070898 20.950148 38.245046-3.048429 11.495822-6.447852 22.901593-9.822716 34.308387-0.912789 3.086291-0.326435 4.89345 2.657526 6.582929 15.711843 8.895601 31.286564 18.033725 46.931892 27.049053 0.99363 0.573051 2.173502 0.821715 3.659343 1.364067-0.225127-1.111311-0.211824-1.478677-0.366344-1.750877-5.903453-10.358929-12.158924-20.536732-17.590634-31.136138-2.571568-5.018294-4.683672-10.767228-5.059226-16.316617-0.924045-13.661138 8.41567-25.89681 21.649066-30.018687 13.05841-4.067642 27.255761 1.055029 34.632775 13.021571 6.16542 10.000771 11.79872 20.329001 17.693987 30.496571 0.762363 1.314948 1.683339 2.537799 3.1262 4.692882 0.301875-1.987261 0.48914-2.64627 0.490164-3.305279 0.01842-18.58631-0.042979-37.172621 0.081864-55.757908 0.020466-3.075035-1.36509-4.111644-4.025687-4.765537-12.211113-2.99931-24.491811-5.783727-36.557614-9.296737-16.681938-4.856611-25.521257-22.580275-19.98517-39.048341 5.350868-15.915481 21.061688-23.811312 38.750559-19.452028 7.012717 1.728364 14.013155 3.50687 21.019733 5.262864 0.384763-0.537236 0.769526-1.074472 1.154289-1.612731-1.242294-1.354857-2.238994-3.177366-3.76986-3.986801-7.671727-4.060479-15.484669-7.853875-23.24747-11.744485-26.647917-13.356193-53.323463-26.65815-79.933517-40.09109-14.468526-7.303336-21.068851-22.064528-16.672728-36.70497 5.652743-18.828834 25.673729-27.254737 44.01547-18.21178 23.362081 11.517311 46.576805 23.332405 69.865207 34.999119 1.717108 0.860601 3.515057 1.561565 5.275143 2.337231-0.693802-2.482541-2.02103-3.960195-3.420913-5.366218-20.338211-20.414959-40.782845-40.72554-60.997236-61.262272-12.501732-12.701277-12.483312-31.496341-0.357134-43.584658 12.30935-12.271488 31.174-12.071943 43.959188 0.530073 6.435573 6.343475 12.756535 12.80463 19.160385 19.181875 1.489934 1.483794 3.102664 2.843768 5.711072 5.217838 0-3.270487 0-5.078669 0-6.886851 0.001023-19.097964-0.060375-38.195927 0.022513-57.292867 0.066515-15.249309 8.882298-27.408233 22.420639-31.244608 1.937119-0.548492 3.856841-1.156336 5.78475-1.736551 1.705851 0 3.41068 0 5.116531 0 0.430812 0.272199 0.827855 0.663102 1.298576 0.798179 19.897166 5.730515 26.927279 15.057951 26.929326 35.772738 0.002047 18.077727-0.008186 36.155455 0.01535 54.234205 0.002047 1.719154 0.209778 3.437286 0.322341 5.15644 0.462534 0.176009 0.924045 0.350994 1.38658 0.527003 7.840572-8.040117 15.587-16.173354 23.546276-24.094768 8.591679-8.550747 19.023262-11.219529 30.5549-7.844665 22.558785 6.602372 29.372981 34.187637 12.611226 51.291177-20.173458 20.583804-40.660048 40.860617-61.002352 61.279668-1.385557 1.390673-2.694365 2.858094-4.03899 4.288676 0.232291 0.346901 0.465604 0.694825 0.697895 1.041726 1.76418-0.788969 3.561106-1.511423 5.2864-2.376117 23.143093-11.590989 46.310745-23.133883 69.39244-34.847669 6.978948-3.541663 14.19735-4.841262 21.754466-3.114944 12.397355 2.832512 21.869077 12.833283 23.415292 24.241101 1.982144 14.630209-3.679809 26.445302-16.146749 32.967856-10.113335 5.291516-20.387329 10.277064-30.590715 15.396665-24.357757 12.223393-48.733934 24.413016-73.039503 36.738739-1.786693 0.905626-3.070942 2.800789-4.588505 4.236488 0.410346 0.579191 0.820692 1.157359 1.231037 1.736551 6.699586-1.651616 13.33368-3.709485 20.12127-4.830005 5.615904-0.927115 11.637038-1.896186 17.08819-0.836041 14.388708 2.796696 24.145933 15.352663 24.237007 29.572526 0.091074 14.302751-9.626241 26.469861-24.342408 30.264281-11.190877 2.8847-22.399149 5.718235-33.659611 8.316409-3.310396 0.763386-4.337795 2.270716-4.312212 5.578042 0.135076 17.906835 0.053212 35.814694 0.088004 53.721529 0.002047 1.180895 0.355087 2.360767 0.726547 4.668323 1.508353-2.535753 2.381234-3.971451 3.223415-5.425569 5.63944-9.728572 11.082406-19.576871 16.957207-29.161157 6.650467-10.849092 16.638959-16.307408 29.281907-14.651698 23.385617 3.062755 34.43323 26.079982 22.824845 46.713928-5.345752 9.503445-10.872628 18.905582-16.283872 28.372188-0.843204 1.475608-1.50733 3.053546-2.573615 5.239328 1.586125-0.396019 2.125407-0.412392 2.538823-0.649799 16.386202-9.44 32.721239-18.969027 49.170886-28.297486 3.118014-1.768273 2.53166-3.898797 1.805112-6.456039-3.391237-11.93482-6.924713-23.833825-10.057053-35.836183-3.222391-12.349259 2.161223-25.535583 12.846586-32.53909 17.993816-11.791557 40.326451-2.77316 46.787606 18.927071 2.117221 7.110955 4.123924 14.253632 6.180769 21.383006 0.610914 0.115634 1.222851 0.230244 1.833765 0.345877 0.659009-1.665942 1.818415-3.315512 1.870604-4.999874 0.104377-3.384074-0.437975-6.785543-0.638543-10.183943-0.833995-14.114462-1.6465-28.229948-2.452865-42.345434-1.272993-22.274306-2.923586-44.536332-3.672646-66.828035-0.537236-15.991206 11.037381-28.000728 27.513634-30.036084 14.630209-1.807159 28.89612 8.103562 32.237215 23.088858 1.394766 6.254447 1.556449 12.815887 1.945305 19.258623 1.221828 20.233833 2.257413 40.4779 3.438309 60.71378 0.206708 3.536546 0.766456 7.052626 1.163499 10.577916 2.89698-6.102998 4.616134-12.266371 6.275937-18.446118 6.479575-24.130583 12.692067-48.336892 19.50217-72.373331 3.988848-14.077623 16.561188-22.151509 31.639604-21.431102 12.970406 0.6191 24.89397 10.733459 27.01119 24.478508 0.943488 6.122441-0.215918 12.785188-1.494027 18.98233-1.971911 9.56382-4.865821 18.936281-7.731078 29.759791 2.917446-1.517563 4.546549-2.289136 6.104021-3.187599 17.116843-9.881045 34.107819-19.986193 51.361785-29.622668 18.534122-10.351766 40.479947-0.207731 45.030589 20.456914C948.141288 272.729521 948.722526 273.786597 949.149245 274.877441z" fill="#ffffff" p-id="5805"></path></svg>