<?xml version="1.0" standalone="no"?><!DOCTYPE svg PUBLIC "-//W3C//DTD SVG 1.1//EN" "http://www.w3.org/Graphics/SVG/1.1/DTD/svg11.dtd"><svg t="1722249400919" class="icon" viewBox="0 0 1024 1024" version="1.1" xmlns="http://www.w3.org/2000/svg" p-id="24173" data-spm-anchor-id="a313x.search_index.0.i2.332e3a81pgYcrb" xmlns:xlink="http://www.w3.org/1999/xlink" width="200" height="200"><path d="M0 512v512h1024V0H0z m825.216-40.79c26.027 6.486 45.824 18.049 64.043 36.907 9.429 10.07 23.424 28.416 24.533 32.854 0.341 1.28-44.203 31.146-71.168 47.914-0.981 0.64-4.907-3.584-9.259-10.069-13.226-19.2-27.008-27.477-48.128-28.928-31.061-2.133-51.029 14.123-50.858 41.259a37.547 37.547 0 0 0 4.352 19.2c6.826 14.122 19.541 22.613 59.306 39.808 73.344 31.573 104.704 52.352 124.203 81.92 21.76 32.981 26.667 85.674 11.861 124.842-16.213 42.582-56.533 71.51-113.28 81.067-17.536 3.115-59.136 2.645-77.994-0.768-41.131-7.339-80.128-27.648-104.192-54.315-9.43-10.368-27.819-37.546-26.667-39.466a67.413 67.413 0 0 1 9.387-6.016c4.608-2.603 21.802-12.544 38.058-21.974l29.44-17.066 6.187 9.13c8.619 13.142 27.435 31.19 38.827 37.206 32.682 17.237 77.525 14.805 99.626-5.035a37.675 37.675 0 0 0 13.355-30.72c0-11.861-1.493-17.067-7.68-26.027-7.936-11.349-24.192-20.906-70.357-40.96-52.822-22.741-75.563-36.864-96.384-59.306a135.04 135.04 0 0 1-28.118-51.2c-3.882-14.464-4.864-50.731-1.792-65.323 10.88-51.072 49.408-86.613 105.003-97.195 18.048-3.413 59.99-2.133 77.696 2.262z m-240.384 42.753l0.341 41.941H451.84v378.71h-94.293v-378.71H224.34v-41.13c0-22.785 0.47-41.814 1.11-42.24 0.512-0.683 81.621-1.025 179.925-0.854l178.987 0.512z" p-id="24174" fill="#1296db"></path></svg>